# Rhino

mtllib TileL.mtl
o object_1
usemtl Custom (3)
v -0.5 -0.49970382452011108 -0.099555723369121552
v -0.5 -0.49970382452011108 0.10029618442058563
v 0.49925953149795532 -0.49970382452011108 -0.099555723369121552
v 0.49925953149795532 -0.49970382452011108 0.10029618442058563
v 0.49925953149795532 -0.49970382452011108 -0.099555723369121552
v 0.49925953149795532 -0.49970382452011108 0.10029618442058563
v 0.49925953149795532 0.49955570697784424 -0.099555723369121552
v 0.49925953149795532 0.49955570697784424 0.10029618442058563
v 0.49925953149795532 0.49955570697784424 -0.099555723369121552
v 0.49925953149795532 0.49955570697784424 0.10029618442058563
v -0.5 0.49955570697784424 -0.099555723369121552
v -0.5 0.49955570697784424 0.10029618442058563
v -0.5 0.49955570697784424 -0.099555723369121552
v -0.5 0.49955570697784424 0.10029618442058563
v -0.5 -0.49970382452011108 -0.099555723369121552
v -0.5 -0.49970382452011108 0.10029618442058563
v -0.5 -0.49970382452011108 -0.099555723369121552
v -0.5 0.49955570697784424 -0.099555723369121552
v 0.49925953149795532 -0.49970382452011108 -0.099555723369121552
v 0.49925953149795532 0.49955570697784424 -0.099555723369121552
v -0.5 -0.49970382452011108 0.10029618442058563
v -0.5 0.49955570697784424 0.10029618442058563
v 0.49925953149795532 -0.49970382452011108 0.10029618442058563
v 0.49925953149795532 0.49955570697784424 0.10029618442058563
vt 0.52211183309555054 0.23805344104766846
vt 0.52211183309555054 0.31233510375022888
vt 0.899666428565979 0.23805344104766846
vt 0.899666428565979 0.31233510375022888
vt 0.97493535280227661 0.31244352459907532
vt 0.89887601137161255 0.31244352459907532
vt 0.97493535280227661 0.68929868936538696
vt 0.89887601137161255 0.68929868936538696
vt 0.4486907422542572 0.68954890966415405
vt 0.52309554815292358 0.68954890966415405
vt 0.4486907422542572 0.31261894106864929
vt 0.52309554815292358 0.31261894106864929
vt 0.52279669046401978 0.68818867206573486
vt 0.52279669046401978 0.763663649559021
vt 0.8983304500579834 0.68818867206573486
vt 0.8983304500579834 0.763663649559021
vt 0.52204382419586182 0.31230664253234863
vt 0.52204382419586182 0.6898612380027771
vt 0.89897376298904419 0.31230664253234863
vt 0.89897376298904419 0.6898612380027771
vt 0.071136243641376495 0.68954890966415405
vt 0.4486907422542572 0.68954890966415405
vt 0.071136243641376495 0.31261903047561646
vt 0.4486907422542572 0.31261903047561646
vn 0 -1 0
vn 0 -1 0
vn 0 -1 0
vn 0 -1 0
vn 1 0 0
vn 1 0 0
vn 1 0 0
vn 1 0 0
vn 0 1 0
vn 0 1 0
vn 0 1 0
vn 0 1 0
vn -1 0 0
vn -1 0 0
vn -1 0 0
vn -1 0 0
vn 0 0 -1
vn 0 0 -1
vn 0 0 -1
vn 0 0 -1
vn 0 0 1
vn 0 0 1
vn 0 0 1
vn 0 0 1
f 2/2/2 1/1/1 3/3/3 4/4/4
f 6/6/6 5/5/5 7/7/7 8/8/8
f 10/10/10 9/9/9 11/11/11 12/12/12
f 14/14/14 13/13/13 15/15/15 16/16/16
f 18/18/18 20/20/20 19/19/19 17/17/17
f 22/22/22 21/21/21 23/23/23 24/24/24
